<svg width="20" height="23" viewBox="0 0 20 23" fill="none" xmlns="http://www.w3.org/2000/svg">
<g clip-path="url(#clip0_30_121)">
<path d="M7.61161 2.31797L6.76339 3.59375H13.2366L12.3884 2.31797C12.3214 2.21914 12.2098 2.15625 12.0893 2.15625H7.90625C7.78571 2.15625 7.67411 2.21465 7.60714 2.31797H7.61161ZM14.1741 1.12305L15.8125 3.59375H16.4286H18.5714H18.9286C19.5223 3.59375 20 4.07441 20 4.67188C20 5.26934 19.5223 5.75 18.9286 5.75H18.5714V19.4062C18.5714 21.3918 16.9732 23 15 23H5C3.02679 23 1.42857 21.3918 1.42857 19.4062V5.75H1.07143C0.477679 5.75 0 5.26934 0 4.67188C0 4.07441 0.477679 3.59375 1.07143 3.59375H1.42857H3.57143H4.1875L5.82589 1.11855C6.29018 0.422266 7.07143 0 7.90625 0H12.0893C12.9241 0 13.7054 0.422266 14.1696 1.11855L14.1741 1.12305ZM3.57143 5.75V19.4062C3.57143 20.2014 4.20982 20.8438 5 20.8438H15C15.7902 20.8438 16.4286 20.2014 16.4286 19.4062V5.75H3.57143ZM7.14286 8.625V17.9688C7.14286 18.3641 6.82143 18.6875 6.42857 18.6875C6.03571 18.6875 5.71429 18.3641 5.71429 17.9688V8.625C5.71429 8.22969 6.03571 7.90625 6.42857 7.90625C6.82143 7.90625 7.14286 8.22969 7.14286 8.625ZM10.7143 8.625V17.9688C10.7143 18.3641 10.3929 18.6875 10 18.6875C9.60714 18.6875 9.28571 18.3641 9.28571 17.9688V8.625C9.28571 8.22969 9.60714 7.90625 10 7.90625C10.3929 7.90625 10.7143 8.22969 10.7143 8.625ZM14.2857 8.625V17.9688C14.2857 18.3641 13.9643 18.6875 13.5714 18.6875C13.1786 18.6875 12.8571 18.3641 12.8571 17.9688V8.625C12.8571 8.22969 13.1786 7.90625 13.5714 7.90625C13.9643 7.90625 14.2857 8.22969 14.2857 8.625Z" fill="#34C759"/>
</g>
<defs>
<clipPath id="clip0_30_121">
<rect width="20" height="23" fill="white"/>
</clipPath>
</defs>
</svg>
