<svg width="24" height="24" viewBox="0 0 24 24" fill="none" xmlns="http://www.w3.org/2000/svg">
<circle cx="12" cy="12" r="12" fill="white"/>
<path fill-rule="evenodd" clip-rule="evenodd" d="M16.5132 6.8499C16.3443 6.8499 16.1823 6.91699 16.0629 7.03641L7.46838 15.6309L7.16819 16.8317L8.36894 16.5315L16.9635 7.93697C17.0226 7.87784 17.0695 7.80764 17.1015 7.73038C17.1335 7.65312 17.15 7.57032 17.15 7.48669C17.15 7.40307 17.1335 7.32026 17.1015 7.243C17.0695 7.16575 17.0226 7.09555 16.9635 7.03641C16.9043 6.97728 16.8341 6.93038 16.7569 6.89838C16.6796 6.86637 16.5968 6.8499 16.5132 6.8499ZM14.8608 5.83433C15.2991 5.3961 15.8934 5.1499 16.5132 5.1499C16.8201 5.1499 17.1239 5.21035 17.4074 5.32778C17.691 5.44521 17.9486 5.61734 18.1656 5.83433C18.3825 6.05132 18.5547 6.30893 18.6721 6.59244C18.7895 6.87596 18.85 7.17982 18.85 7.48669C18.85 7.79357 18.7895 8.09743 18.6721 8.38095C18.5547 8.66446 18.3825 8.92207 18.1656 9.13906L9.40454 17.9001C9.29561 18.009 9.15912 18.0863 9.00966 18.1236L6.20614 18.8245C5.91648 18.8969 5.61006 18.8121 5.39894 18.6009C5.18782 18.3898 5.10295 18.0834 5.17536 17.7937L5.87624 14.9902C5.91361 14.8408 5.99089 14.7043 6.09982 14.5953L14.8608 5.83433ZM11.4579 17.9999C11.4579 17.5305 11.8385 17.1499 12.3079 17.1499H18.6158C19.0853 17.1499 19.4658 17.5305 19.4658 17.9999C19.4658 18.4693 19.0853 18.8499 18.6158 18.8499H12.3079C11.8385 18.8499 11.4579 18.4693 11.4579 17.9999Z" fill="#F48664"/>
</svg>
